<svg id="Layer_1" data-name="Layer 1" xmlns="http://www.w3.org/2000/svg" viewBox="0 0 455.74 202.32"><defs><style>.cls-1{fill:#fff;}.cls-2{fill:#79b729;}</style></defs><title>digital_revisor_logo_white</title><g id="Revisor"><path class="cls-1" d="M226.11,126.94a2.69,2.69,0,0,1,.75-1.88,2.58,2.58,0,0,1,2-.81h12.88a24,24,0,0,1,6,.71,13.35,13.35,0,0,1,4.91,2.32,10.93,10.93,0,0,1,3.32,4.31,16.59,16.59,0,0,1,1.2,6.74q0,5.79-2.44,9.06a11.91,11.91,0,0,1-6.08,4.41l8.52,16.37a1.47,1.47,0,0,1,.26.57,2.19,2.19,0,0,1,.07.51,3.33,3.33,0,0,1-.49,1.65,5.85,5.85,0,0,1-1.24,1.48,6.2,6.2,0,0,1-1.69,1,4.7,4.7,0,0,1-1.85.41,2.77,2.77,0,0,1-1.66-.54,4.33,4.33,0,0,1-1.27-1.55L240,153.15h-5.47v17.58a2.24,2.24,0,0,1-1.3,2.06,6.4,6.4,0,0,1-5.82,0,2.24,2.24,0,0,1-1.34-2.06Zm8.46,5v14.35h7.16a7.63,7.63,0,0,0,5.08-1.59q1.88-1.58,1.88-5.55c0-2.65-.63-4.52-1.88-5.59a7.54,7.54,0,0,0-5.08-1.62Z"/><path class="cls-1" d="M271.66,145.4h9.89a2.22,2.22,0,0,1,2,1.08,4.45,4.45,0,0,1,0,4.68,2.18,2.18,0,0,1-2,1.11h-9.89v13.54h18.42a2.18,2.18,0,0,1,2,1.18,5.32,5.32,0,0,1,.68,2.73,5.27,5.27,0,0,1-.65,2.56,2.13,2.13,0,0,1-2,1.21H266.91a4.79,4.79,0,0,1-2.57-.7,2.29,2.29,0,0,1-1.14-2.06V127a2.26,2.26,0,0,1,1.14-2.05,4.71,4.71,0,0,1,2.57-.71h23.17a2.13,2.13,0,0,1,2,1.21,5.59,5.59,0,0,1,0,5.29,2.16,2.16,0,0,1-2,1.18H271.66Z"/><path class="cls-1" d="M294.5,128.56a3.81,3.81,0,0,1-.13-.67,2.37,2.37,0,0,1,.52-1.49,4.79,4.79,0,0,1,1.3-1.14,7.28,7.28,0,0,1,1.73-.74,6.49,6.49,0,0,1,1.79-.27,3.86,3.86,0,0,1,1.85.4,2.06,2.06,0,0,1,1,1.35l10,36.51L322.42,126a2.08,2.08,0,0,1,1-1.35,3.88,3.88,0,0,1,1.86-.4,6.83,6.83,0,0,1,3.51,1,5.41,5.41,0,0,1,1.3,1.15,2.24,2.24,0,0,1,.53,1.45,4.3,4.3,0,0,1-.14.67L318,170.93a3.44,3.44,0,0,1-2,2.26,8.27,8.27,0,0,1-3.44.71,8.08,8.08,0,0,1-3.42-.71,3.69,3.69,0,0,1-2.05-2.26Z"/><path class="cls-1" d="M335.11,126.94a2.14,2.14,0,0,1,1.3-2,6.46,6.46,0,0,1,2.92-.64,6.55,6.55,0,0,1,2.9.64,2.13,2.13,0,0,1,1.33,2v43.79a2.23,2.23,0,0,1-1.33,2.06,6.09,6.09,0,0,1-2.9.7,6,6,0,0,1-2.92-.7,2.24,2.24,0,0,1-1.3-2.06Z"/><path class="cls-1" d="M363.8,166.22a9.12,9.12,0,0,0,5.11-1.42,4.91,4.91,0,0,0,2.18-4.44,5.58,5.58,0,0,0-1.56-4.08,16.27,16.27,0,0,0-3.87-2.83q-2.31-1.24-5-2.39a24.07,24.07,0,0,1-5-2.86,15,15,0,0,1-3.87-4.28,12.38,12.38,0,0,1-1.56-6.53,12.89,12.89,0,0,1,1.43-6.34,12.49,12.49,0,0,1,3.68-4.14,15.19,15.19,0,0,1,5.07-2.29,23.29,23.29,0,0,1,5.63-.71c1,0,2.14.07,3.55.2a20.81,20.81,0,0,1,4.07.81,11.39,11.39,0,0,1,3.35,1.65,3.27,3.27,0,0,1,1.4,2.73,5.67,5.67,0,0,1-.2,1.38,5.8,5.8,0,0,1-.62,1.52,4.14,4.14,0,0,1-1.07,1.24,2.35,2.35,0,0,1-1.5.51,3.05,3.05,0,0,1-1.49-.4c-.48-.27-1-.57-1.7-.88a15.73,15.73,0,0,0-2.37-.88,12.44,12.44,0,0,0-3.42-.4,9.19,9.19,0,0,0-5.43,1.38,4.43,4.43,0,0,0-1.92,3.81,4.25,4.25,0,0,0,1.56,3.4,17.68,17.68,0,0,0,3.87,2.39q2.31,1.08,5,2.26a22,22,0,0,1,5,3,15.66,15.66,0,0,1,3.87,4.65,14.59,14.59,0,0,1,1.56,7.17,16.06,16.06,0,0,1-1.17,6.37,12.74,12.74,0,0,1-3.22,4.54,13.86,13.86,0,0,1-4.88,2.77,19.84,19.84,0,0,1-6.22.94,23.09,23.09,0,0,1-5.95-.74,18.56,18.56,0,0,1-4.78-2,11,11,0,0,1-3.16-2.69,4.87,4.87,0,0,1-1.14-3,4.82,4.82,0,0,1,.29-1.52,5.9,5.9,0,0,1,.82-1.55,5.24,5.24,0,0,1,1.17-1.18,2.4,2.4,0,0,1,1.43-.47,3,3,0,0,1,1.92.81c.63.54,1.34,1.13,2.15,1.78a14.28,14.28,0,0,0,2.86,1.79A9.38,9.38,0,0,0,363.8,166.22Z"/><path class="cls-1" d="M400,173.9a20.21,20.21,0,0,1-6-.85,12.63,12.63,0,0,1-4.82-2.66,12.23,12.23,0,0,1-3.22-4.75,19.36,19.36,0,0,1-1.17-7.17V139.68A19.45,19.45,0,0,1,386,132.5a12.3,12.3,0,0,1,3.22-4.75,12.76,12.76,0,0,1,4.82-2.66,21.85,21.85,0,0,1,12,0,13,13,0,0,1,4.88,2.66,12.27,12.27,0,0,1,3.26,4.75,19.45,19.45,0,0,1,1.17,7.18v18.79a19.36,19.36,0,0,1-1.17,7.17,12.19,12.19,0,0,1-3.26,4.75,12.87,12.87,0,0,1-4.88,2.66A20.36,20.36,0,0,1,400,173.9Zm6.84-34.22c0-2.7-.61-4.66-1.83-5.9a6.71,6.71,0,0,0-5-1.85,6.6,6.6,0,0,0-5,1.85c-1.17,1.24-1.75,3.2-1.75,5.9v18.79c0,2.69.58,4.66,1.75,5.89a6.57,6.57,0,0,0,5,1.86,6.68,6.68,0,0,0,5-1.86c1.22-1.23,1.83-3.2,1.83-5.89Z"/><path class="cls-1" d="M422.56,126.94a2.69,2.69,0,0,1,.75-1.88,2.56,2.56,0,0,1,2-.81h12.88a23.93,23.93,0,0,1,6,.71,13.28,13.28,0,0,1,4.91,2.32,10.93,10.93,0,0,1,3.32,4.31,16.42,16.42,0,0,1,1.21,6.74c0,3.86-.82,6.88-2.44,9.06a11.94,11.94,0,0,1-6.09,4.41l8.53,16.37a1.63,1.63,0,0,1,.26.57,2.76,2.76,0,0,1,.06.51,3.23,3.23,0,0,1-.49,1.65,5.61,5.61,0,0,1-1.23,1.48,6.36,6.36,0,0,1-1.69,1,4.71,4.71,0,0,1-1.86.41,2.77,2.77,0,0,1-1.66-.54,4.33,4.33,0,0,1-1.27-1.55l-9.24-18.59H431v17.58a2.26,2.26,0,0,1-1.3,2.06,6.42,6.42,0,0,1-5.83,0,2.23,2.23,0,0,1-1.33-2.06Zm8.46,5v14.35h7.15a7.63,7.63,0,0,0,5.08-1.59q1.89-1.58,1.89-5.55c0-2.65-.63-4.52-1.89-5.59a7.54,7.54,0,0,0-5.08-1.62Z"/></g><g id="DIgital"><path class="cls-1" d="M241.34,56.89a20.8,20.8,0,0,1,6,.84,13.09,13.09,0,0,1,4.88,2.66,12.18,12.18,0,0,1,3.25,4.75,19.36,19.36,0,0,1,1.17,7.17V90.7a19.45,19.45,0,0,1-1.17,7.18,12.21,12.21,0,0,1-3.25,4.74,13,13,0,0,1-4.88,2.67,20.8,20.8,0,0,1-6,.84H229.82a4.18,4.18,0,0,1-2.7-.81,2.39,2.39,0,0,1-1-1.89V59.58a2.39,2.39,0,0,1,1-1.89,4.18,4.18,0,0,1,2.7-.8Zm-6.77,7.67V98.45h6.77a6.6,6.6,0,0,0,5-1.89c1.2-1.25,1.79-3.21,1.79-5.86V72.31c0-2.65-.59-4.6-1.79-5.86a6.6,6.6,0,0,0-5-1.89Z"/><path class="cls-1" d="M263.85,59.58a2.17,2.17,0,0,1,1.3-2.06,7.06,7.06,0,0,1,5.83,0,2.15,2.15,0,0,1,1.33,2.06v43.79a2.21,2.21,0,0,1-1.33,2,6.34,6.34,0,0,1-5.83,0,2.23,2.23,0,0,1-1.3-2Z"/><path class="cls-1" d="M301.66,71.23a12.22,12.22,0,0,0-.36-2.39,5.46,5.46,0,0,0-1-2.12,5.64,5.64,0,0,0-2-1.55,7.86,7.86,0,0,0-3.35-.61,6.58,6.58,0,0,0-5.07,1.89q-1.76,1.89-1.76,5.86v18.8q0,4,1.76,5.86a6.53,6.53,0,0,0,5,1.88,6.68,6.68,0,0,0,5-1.88q1.82-1.89,1.82-5.86v-4h-5.27a2.15,2.15,0,0,1-1.95-1,4.66,4.66,0,0,1,0-4.75,2.12,2.12,0,0,1,1.95-1.08h11.06a2.42,2.42,0,0,1,2,.84,3.1,3.1,0,0,1,.68,2v8A19.4,19.4,0,0,1,309,98.28a12.16,12.16,0,0,1-3.26,4.75,13,13,0,0,1-4.88,2.66,21.85,21.85,0,0,1-12,0A12.76,12.76,0,0,1,284,103a12.41,12.41,0,0,1-3.22-4.75,19.4,19.4,0,0,1-1.17-7.17V72.31a19.36,19.36,0,0,1,1.17-7.17A12.34,12.34,0,0,1,284,60.39a12.86,12.86,0,0,1,4.75-2.66,19.51,19.51,0,0,1,5.83-.84,21.09,21.09,0,0,1,6.21.87,14.52,14.52,0,0,1,4.91,2.56A11.86,11.86,0,0,1,309,64.4a12.16,12.16,0,0,1,1.17,5.42c0,1.71-.36,2.83-1.08,3.37a5.15,5.15,0,0,1-3.15.81,6.63,6.63,0,0,1-2.93-.61A2.32,2.32,0,0,1,301.66,71.23Z"/><path class="cls-1" d="M316.82,59.58a2.15,2.15,0,0,1,1.3-2.06,6.63,6.63,0,0,1,2.93-.63,6.72,6.72,0,0,1,2.9.63,2.16,2.16,0,0,1,1.33,2.06v43.79a2.23,2.23,0,0,1-1.33,2,6.13,6.13,0,0,1-2.9.71,6,6,0,0,1-2.93-.71,2.21,2.21,0,0,1-1.3-2Z"/><path class="cls-1" d="M360.16,56.89a2.12,2.12,0,0,1,2,1.24,5.61,5.61,0,0,1,.66,2.66,5.44,5.44,0,0,1-.69,2.76,2.16,2.16,0,0,1-2,1.22h-9.5v38.6a2.22,2.22,0,0,1-1.34,2,6.32,6.32,0,0,1-5.82,0,2.21,2.21,0,0,1-1.3-2V64.77h-9.57a2.17,2.17,0,0,1-2-1.18,5.46,5.46,0,0,1-.69-2.8,5.61,5.61,0,0,1,.66-2.66,2.12,2.12,0,0,1,2-1.24Z"/><path class="cls-1" d="M365.75,106.13a6.54,6.54,0,0,1-1.79-.27,7.2,7.2,0,0,1-1.72-.74,4.82,4.82,0,0,1-1.3-1.15,2.35,2.35,0,0,1-.52-1.48,3.81,3.81,0,0,1,.13-.67l12.56-42.38a3.45,3.45,0,0,1,2-2.25,8.17,8.17,0,0,1,3.39-.71,8.32,8.32,0,0,1,3.45.71,3.45,3.45,0,0,1,2,2.25l12.56,42.38a3.81,3.81,0,0,1,.13.67,2.23,2.23,0,0,1-.52,1.45,5.35,5.35,0,0,1-1.3,1.14,6.39,6.39,0,0,1-1.72.78,6.54,6.54,0,0,1-1.79.27,3.88,3.88,0,0,1-1.86-.41,2.07,2.07,0,0,1-1-1.34l-2.47-9h-14.9l-2.47,9a2.07,2.07,0,0,1-1,1.34A3.88,3.88,0,0,1,365.75,106.13Zm18.42-17.58-5.66-20.68-5.66,20.68Z"/><path class="cls-1" d="M404.86,106.13a4.8,4.8,0,0,1-2.57-.71,2.26,2.26,0,0,1-1.14-2V59.58a2.15,2.15,0,0,1,1.3-2.06,7.06,7.06,0,0,1,5.83,0,2.15,2.15,0,0,1,1.33,2.06V98.45h15.88a2,2,0,0,1,1.92,1.18,5.64,5.64,0,0,1,.62,2.66,5.75,5.75,0,0,1-.62,2.63,2.05,2.05,0,0,1-1.92,1.21Z"/></g><path class="cls-2" d="M181.1,152.9c0,27.29-21.37,49.42-47.74,49.42H47.74C21.37,202.32,0,180.19,0,152.9V64.25C0,37,21.37,14.83,47.74,14.83h85.62c26.37,0,47.74,22.13,47.74,49.42Z"/><path class="cls-1" d="M48,105.69c4.38-5.81,10.21-10.47,16.77-12.06,13.13,3.73,18.35,13.22,24.07,20.79C109,89.19,156.67,12.38,197.41.16c4.09-1.22,11.85,4.8,8.75,6.93C143.38,50.3,115.35,114.33,98.09,154.44c-7.61,3.08-14.38,3.08-22.85,0C71.51,135.37,63.9,119.38,48,105.69"/></svg>